<svg width="55" height="40" viewBox="0 0 55 40" fill="none" xmlns="http://www.w3.org/2000/svg">
<path d="M30.231 38.9943L18.8251 0.358097C18.7527 0.0722592 18.6425 -6.10352e-05 18.3946 -6.10352e-05H10.8595C10.6804 -6.10352e-05 10.5737 0.106697 10.5737 0.358097C10.5013 2.15233 10.3946 2.65513 10.2155 3.29912L0.0252406 38.922C-0.0470797 39.3525 0.0252407 39.4593 0.383398 39.4593H5.65589C6.01405 39.4593 6.12081 39.3525 6.19313 39.0632L9.02739 28.3357H20.5435L23.4846 39.0977C23.5569 39.3491 23.736 39.4558 24.0218 39.4558H29.9417C30.231 39.4593 30.3033 39.2802 30.231 38.9943ZM10.5013 22.5294C11.9719 16.9677 13.9452 9.86649 14.6994 5.66847H14.7717C15.6671 9.86649 18.1088 18.5484 19.1109 22.5294H10.5013Z" fill="#D8A1FF"/>
<path d="M43.9335 9.82863C36.2194 9.82863 31.8457 16.7507 31.8457 25.2191C31.8457 33.0021 35.3963 40 44.8668 40C47.8078 40 50.1772 39.5695 52.0782 38.6362C52.3296 38.4571 52.4363 38.278 52.4363 37.9199V33.4326C52.4363 33.1089 52.2572 33.0744 52.0058 33.1812C50.1048 34.0077 48.2762 34.2935 46.1582 34.2935C40.7342 34.2935 38.4337 31.0598 38.3408 26.2591H47.7389C50.8969 26.2591 53.0114 26.1145 53.7312 26.0077C54.017 25.9354 54.1272 25.8286 54.1961 25.5428C54.3752 24.8609 54.4819 23.4627 54.4819 21.7408C54.4819 16.3926 51.7544 9.82863 43.9335 9.82863ZM48.2762 21.2001C48.0971 21.2725 47.4497 21.2725 45.621 21.2725H38.4096C38.7678 18.08 40.2383 15.0667 43.6821 15.0667C47.4118 15.0667 48.3451 18.6551 48.3451 20.5906C48.3485 20.7697 48.2762 20.9487 48.2762 21.2001Z" fill="#D8A1FF"/>
</svg>
