<svg width="110" height="110" viewBox="0 0 110 110" fill="none" xmlns="http://www.w3.org/2000/svg">
<ellipse cx="55" cy="54.9999" rx="55" ry="55" transform="rotate(90 55 54.9999)" fill="#424242"/>
<path d="M55 2.35441e-05C62.9504 2.36389e-05 70.8062 1.72366 78.0263 5.05215C85.2463 8.38065 91.659 13.2349 96.8223 19.2804C101.986 25.3259 105.777 32.4189 107.935 40.0708C110.093 47.7227 110.567 55.7514 109.323 63.6039C108.079 71.4564 105.148 78.9459 100.731 85.5564C96.3138 92.1669 90.5162 97.7412 83.7374 101.895C76.9586 106.049 69.3598 108.684 61.4646 109.619C53.5693 110.553 45.5653 109.765 38.0041 107.308L55 55L55 2.35441e-05Z" fill="#D8A1FF"/>
<mask id="mask0" mask-type="alpha" maskUnits="userSpaceOnUse" x="3" y="3" width="105" height="105">
<circle cx="55.2329" cy="55.2329" r="52.2329" fill="#242424"/>
</mask>
<g mask="url(#mask0)">
<path d="M1.46289 1.46375H109.756V107.591H1.46289V1.46375Z" fill="#242424"/>
</g>
</svg>
