<svg width="42" height="40" viewBox="0 0 42 40" fill="none" xmlns="http://www.w3.org/2000/svg">
<path d="M35.1543 11.6456C35.1543 11.3636 35.2599 11.2208 35.5801 11.2208H41.1494C41.4322 11.2208 41.5752 11.3262 41.5752 11.6456V39.5753C41.5752 39.8573 41.5037 40 41.1494 40H35.6482C35.294 40 35.1884 39.8233 35.1884 39.5413V11.6456H35.1543Z" fill="#FF7F18"/>
<path d="M34.7617 3.60888C34.7617 1.3423 36.3593 1.52588e-05 38.3827 1.52588e-05C40.5457 1.52588e-05 42.0002 1.45104 42.0002 3.60888C42.0002 5.94344 40.4741 7.21775 38.3111 7.21775C36.2537 7.22115 34.7617 5.94683 34.7617 3.60888Z" fill="#FF7F18"/>
<path d="M29.9019 39.5379L18.6201 1.34574C18.5486 1.06369 18.443 0.992325 18.1943 0.992325H10.7413C10.5641 0.992325 10.4585 1.09767 10.4585 1.34574C10.387 3.07881 10.2814 3.64631 10.1043 4.28516L0.0249658 39.4699C-0.0465671 39.8947 0.0249658 40.0001 0.379224 40.0001H5.59431C5.94857 40.0001 6.05416 39.9287 6.1257 39.6466L8.9291 29.0273H20.2824L23.1914 39.6806C23.2629 39.9287 23.4401 40.0001 23.7228 40.0001H29.6123C29.9019 40.0001 29.9734 39.8234 29.9019 39.5379ZM10.387 23.2912C11.8756 17.8031 13.7593 10.7961 14.5019 6.6537H14.5734C15.459 10.7961 17.8026 19.3629 18.7972 23.2912H10.387Z" fill="#FF7F18"/>
</svg>
