<svg width="110" height="110" viewBox="0 0 110 110" fill="none" xmlns="http://www.w3.org/2000/svg">
<ellipse cx="55" cy="55" rx="55" ry="55" transform="rotate(90 55 55)" fill="#424242"/>
<path d="M55 -6.97353e-06C66.6149 -6.83502e-06 77.9316 3.67702 87.3282 10.5041C96.7248 17.3311 103.719 26.9577 107.308 38.0041C110.897 49.0505 110.897 60.9495 107.308 71.9959C103.719 83.0423 96.7248 92.6689 87.3282 99.4959C77.9316 106.323 66.6149 110 55 110C43.3851 110 32.0684 106.323 22.6718 99.4959C13.2752 92.6689 6.28108 83.0423 2.69189 71.9959C-0.897297 60.9495 -0.897296 49.0504 2.69189 38.0041L55 55L55 -6.97353e-06Z" fill="#FF401F"/>
<mask id="mask0" mask-type="alpha" maskUnits="userSpaceOnUse" x="3" y="3" width="105" height="105">
<circle cx="55.2329" cy="55.2329" r="52.2329" fill="#242424"/>
</mask>
<g mask="url(#mask0)">
<path d="M1.46289 1.46375H109.756V107.591H1.46289V1.46375Z" fill="#242424"/>
</g>
</svg>
