<svg width="20" height="20" viewBox="0 0 20 20" fill="none" xmlns="http://www.w3.org/2000/svg">
<path d="M11.763 9.99936L19.6322 2.14386C19.7488 2.02724 19.8413 1.8888 19.9044 1.73643C19.9675 1.58407 20 1.42076 20 1.25584C20 1.09092 19.9675 0.927617 19.9044 0.775252C19.8413 0.622886 19.7488 0.484443 19.6322 0.367827C19.5156 0.251212 19.3771 0.158707 19.2247 0.0955952C19.0724 0.0324833 18.9091 0 18.7442 0C18.5792 0 18.4159 0.0324833 18.2636 0.0955952C18.1112 0.158707 17.9728 0.251212 17.8561 0.367827L10.0006 8.237L2.14581 0.369194C1.9103 0.133678 1.59087 0.00136624 1.2578 0.00136624C0.924727 0.00136624 0.605299 0.133678 0.369783 0.369194C0.134268 0.60471 0.00195602 0.924138 0.00195602 1.25721C0.00195602 1.59028 0.134268 1.90971 0.369783 2.14522L8.23895 10.0007L0.369783 17.8562C0.253254 17.9717 0.160619 18.109 0.0971721 18.2603C0.0337249 18.4116 0.000709098 18.5739 1.12975e-05 18.7379C-0.000686503 18.902 0.0309473 19.0645 0.0931051 19.2164C0.155263 19.3682 0.246727 19.5063 0.362269 19.6227L0.369783 19.6302C0.485251 19.7467 0.622548 19.8394 0.773829 19.9028C0.925111 19.9663 1.08741 19.9993 1.25146 20C1.41551 20.0007 1.57808 19.9691 1.7299 19.9069C1.88171 19.8447 2.01979 19.7533 2.13625 19.6377L2.14376 19.6302L9.99927 11.761L17.8548 19.6302C17.9702 19.7467 18.1075 19.8394 18.2588 19.9028C18.4101 19.9663 18.5724 19.9993 18.7365 20C18.9005 20.0007 19.0631 19.9691 19.2149 19.9069C19.3667 19.8447 19.5048 19.7533 19.6212 19.6377L19.6288 19.6302C19.7453 19.5147 19.8379 19.3775 19.9014 19.2262C19.9648 19.0749 19.9978 18.9126 19.9985 18.7485C19.9992 18.5845 19.9676 18.4219 19.9054 18.2701C19.8433 18.1183 19.7518 17.9802 19.6363 17.8638L19.6288 17.8562L11.763 9.99936Z" fill="white"/>
</svg>
