<svg width="19" height="20" viewBox="0 0 19 20" fill="none" xmlns="http://www.w3.org/2000/svg">
<path d="M0 18.8951C0 18.3428 0.447715 17.8951 1 17.8951H17.9475C18.4998 17.8951 18.9475 18.3428 18.9475 18.8951V19C18.9475 19.5523 18.4998 20 17.9475 20H1C0.447717 20 0 19.5523 0 19V18.8951ZM10.5267 9.34519C10.5265 10.2362 11.6038 10.6825 12.2338 10.0525L16.2122 6.07411C16.6027 5.68359 17.2359 5.68359 17.6264 6.07411L17.701 6.14866C18.0915 6.53919 18.0915 7.17238 17.7009 7.5629L10.1808 15.0823C9.79033 15.4728 9.15721 15.4728 8.76669 15.0823L1.2488 7.56511C0.858315 7.17466 0.858216 6.54162 1.24857 6.15105L1.3235 6.07609C1.71399 5.68539 2.34731 5.6853 2.7379 6.0759L6.7166 10.0546C7.34656 10.6846 8.4237 10.2384 8.4237 9.34748V1C8.4237 0.447716 8.87142 0 9.4237 0H9.52843C10.0808 0 10.5285 0.447839 10.5284 1.0002L10.5267 9.34519Z" fill="#09F77D"/>
</svg>
