<svg width="24" height="19" viewBox="0 0 24 19" fill="none" xmlns="http://www.w3.org/2000/svg">
<path d="M20.1535 0H3.5565C2.61326 0 1.70865 0.374702 1.04167 1.04167C0.374702 1.70865 0 2.61326 0 3.5565V15.4115C0 16.3547 0.374702 17.2594 1.04167 17.9263C1.70865 18.5933 2.61326 18.968 3.5565 18.968H20.1535C21.0967 18.968 22.0014 18.5933 22.6683 17.9263C23.3353 17.2594 23.71 16.3547 23.71 15.4115V3.5565C23.71 2.61326 23.3353 1.70865 22.6683 1.04167C22.0014 0.374702 21.0967 0 20.1535 0V0ZM19.3592 2.371L11.855 8.00212L4.35078 2.371H19.3592ZM20.1535 16.597H3.5565C3.24209 16.597 2.94055 16.4721 2.71822 16.2498C2.4959 16.0275 2.371 15.7259 2.371 15.4115V3.85287L11.1437 10.4324C11.3489 10.5863 11.5985 10.6695 11.855 10.6695C12.1115 10.6695 12.3611 10.5863 12.5663 10.4324L21.339 3.85287V15.4115C21.339 15.7259 21.2141 16.0275 20.9918 16.2498C20.7694 16.4721 20.4679 16.597 20.1535 16.597Z" fill="#09F77D"/>
</svg>
