<svg width="110" height="110" viewBox="0 0 110 110" fill="none" xmlns="http://www.w3.org/2000/svg">
<ellipse cx="55" cy="55" rx="55" ry="55" transform="rotate(90 55 55)" fill="#424242"/>
<path d="M55 5.40616e-05C64.4105 5.41738e-05 73.6636 2.41461 81.8742 7.01277C90.0848 11.6109 96.9782 18.2389 101.895 26.2626C106.812 34.2864 109.588 43.4375 109.958 52.8408C110.327 62.244 108.278 71.5847 104.005 79.9695C99.7331 88.3543 93.3809 95.5027 85.5564 100.731C77.7318 105.959 68.6967 109.092 59.3152 109.831C49.9338 110.569 40.5198 108.888 31.9737 104.948C23.4276 101.008 16.0354 94.9415 10.5041 87.3282L55 55.0001L55 5.40616e-05Z" fill="#E9225F"/>
<mask id="mask0" mask-type="alpha" maskUnits="userSpaceOnUse" x="3" y="3" width="105" height="105">
<circle cx="55.2329" cy="55.233" r="52.2329" fill="#242424"/>
</mask>
<g mask="url(#mask0)">
<path d="M1.46289 1.46381H109.756V107.591H1.46289V1.46381Z" fill="#242424"/>
</g>
</svg>
