<svg width="38" height="40" viewBox="0 0 38 40" fill="none" xmlns="http://www.w3.org/2000/svg">
<g clip-path="url(#clip0)">
<path d="M31.8933 5.51464C31.7422 5.66572 31.5911 5.70349 31.4023 5.70349H11.9122C11.7233 5.70349 11.61 5.81681 11.61 6.00567V16.695C11.61 16.8839 11.7233 16.9972 11.9122 16.9972H25.0189C25.2077 16.9972 25.3588 17.0727 25.5099 17.186C25.661 17.3371 25.6988 17.4882 25.6988 17.6771V22.0208C25.6988 22.2096 25.6232 22.3607 25.5099 22.5118C25.3588 22.6629 25.2077 22.7007 25.0189 22.7007H11.9122C11.7233 22.7007 11.61 22.814 11.61 23.0028V33.9943C11.61 34.1832 11.7233 34.2965 11.9122 34.2965H31.4023C31.5911 34.2965 31.7422 34.372 31.8933 34.4854C32.0444 34.6364 32.0822 34.7875 32.0822 34.9764V39.3201C32.0822 39.509 32.0066 39.6601 31.8933 39.8111C31.7422 39.9622 31.5911 40 31.4023 40H5.67989C5.49103 40 5.33994 39.9245 5.18886 39.8111C5.07554 39.6601 5 39.509 5 39.3201V0.679887C5 0.491029 5.07554 0.339943 5.18886 0.188857C5.33994 0.075543 5.49103 0 5.67989 0H31.4023C31.5911 0 31.7422 0.075543 31.8933 0.188857C32.0444 0.339943 32.0822 0.491029 32.0822 0.679887V5.02361C32.0822 5.21246 32.0066 5.40132 31.8933 5.51464Z" fill="#E9225F"/>
</g>
<defs>
<clipPath id="clip0">
<rect width="27.0822" height="40" fill="white" transform="translate(5)"/>
</clipPath>
</defs>
</svg>
