<svg width="24" height="24" viewBox="0 0 24 24" fill="none" xmlns="http://www.w3.org/2000/svg">
<path d="M13.04 21.265C15.535 20.947 17.8016 19.651 19.3412 17.6621C20.8809 15.6731 21.5674 13.1541 21.25 10.659C20.9589 8.37076 19.8439 6.26701 18.1137 4.74149C16.3835 3.21597 14.1567 2.37323 11.85 2.371C10.6045 2.37008 9.3711 2.61448 8.2201 3.09025C7.06909 3.56601 6.02307 4.26383 5.14175 5.14385C4.26043 6.02387 3.56107 7.06886 3.0836 8.21916C2.60614 9.36946 2.35992 10.6025 2.359 11.848C2.3574 14.1603 3.20058 16.3934 4.72999 18.1276C6.2594 19.8618 8.36968 20.9776 10.664 21.265V14.226H8.293V11.855H10.664V9.894C10.5692 8.95453 10.7331 8.00702 11.138 7.154C11.4431 6.57989 11.9143 6.11114 12.49 5.809C13.1153 5.51298 13.7982 5.35864 14.49 5.357C14.9969 5.3384 15.5044 5.37022 16.005 5.452V7.7H15.411C14.804 7.63619 14.1904 7.70233 13.611 7.894C13.451 7.97588 13.3209 8.10603 13.239 8.266C13.097 8.534 13.045 8.799 13.045 9.888V11.85H16.009L15.416 14.221H13.04V21.265ZM11.85 23.709C8.70682 23.7079 5.69273 22.4586 3.47054 20.2356C1.24835 18.0127 -1.36651e-07 14.9982 4.2298e-08 11.855C-0.000265309 8.71164 1.24797 5.69688 3.47019 3.47372C5.69241 1.25057 8.70664 0.00106173 11.85 1.05461e-06C13.4072 -0.000655773 14.9493 0.305506 16.3881 0.900993C17.8269 1.49648 19.1343 2.36963 20.2356 3.47054C21.3369 4.57146 22.2105 5.87857 22.8065 7.31721C23.4025 8.75584 23.7091 10.2978 23.709 11.855C23.709 13.4121 23.4022 14.954 22.8062 16.3925C22.2102 17.831 21.3365 19.138 20.2353 20.2388C19.134 21.3396 17.8266 22.2127 16.3879 22.8081C14.9491 23.4035 13.4071 23.7097 11.85 23.709Z" fill="#09F77D"/>
</svg>
