<svg width="110" height="110" viewBox="0 0 110 110" fill="none" xmlns="http://www.w3.org/2000/svg">
<ellipse cx="55" cy="55" rx="55" ry="55" transform="rotate(90 55 55)" fill="#424242"/>
<path d="M55 5.40616e-05C62.2227 5.41478e-05 69.3747 1.42267 76.0476 4.18668C82.7205 6.95069 88.7836 11.002 93.8909 16.1092C98.9981 21.2164 103.049 27.2796 105.813 33.9525C108.577 40.6254 110 47.7774 110 55.0001C110 62.2228 108.577 69.3747 105.813 76.0477C103.049 82.7206 98.9981 88.7837 93.8909 93.8909C88.7836 98.9982 82.7205 103.049 76.0476 105.813C69.3747 108.577 62.2227 110 55 110L55 55.0001L55 5.40616e-05Z" fill="#1ABCFE"/>
<mask id="mask0" mask-type="alpha" maskUnits="userSpaceOnUse" x="3" y="3" width="105" height="105">
<circle cx="55.2329" cy="55.233" r="52.2329" fill="#242424"/>
</mask>
<g mask="url(#mask0)">
<path d="M1.46289 1.46381H109.756V107.591H1.46289V1.46381Z" fill="#242424"/>
</g>
</svg>
