<svg width="27" height="40" viewBox="0 0 27 40" fill="none" xmlns="http://www.w3.org/2000/svg">
<path d="M6.6672 40C10.3472 40 13.3344 37.0128 13.3344 33.3328V26.6656H6.6672C2.9872 26.6656 0 29.6528 0 33.3328C0 37.0128 2.9872 40 6.6672 40Z" fill="#0ACF83"/>
<path d="M0 20C0 16.32 2.9872 13.3328 6.6672 13.3328H13.3344V26.6656H6.6672C2.9872 26.6672 0 23.68 0 20Z" fill="#A259FF"/>
<path d="M0 6.66793C0 2.98793 2.9872 0.000732422 6.6672 0.000732422H13.3344V13.3335H6.6672C2.9872 13.3335 0 10.3479 0 6.66793Z" fill="#F24E1E"/>
<path d="M13.332 0H19.9992C23.6792 0 26.6664 2.9872 26.6664 6.6672C26.6664 10.3472 23.6792 13.3328 19.9992 13.3328H13.332V0Z" fill="#FF7262"/>
<path d="M26.6664 20C26.6664 23.68 23.6792 26.6672 19.9992 26.6672C16.3192 26.6672 13.332 23.68 13.332 20C13.332 16.32 16.3192 13.3328 19.9992 13.3328C23.6792 13.3328 26.6664 16.32 26.6664 20Z" fill="#1ABCFE"/>
</svg>
