<svg width="24" height="25" viewBox="0 0 24 25" fill="none" xmlns="http://www.w3.org/2000/svg">
<path d="M11.855 9.29999C11.1517 9.29999 10.4642 9.50854 9.87939 9.89928C9.29461 10.29 8.83883 10.8454 8.56968 11.4952C8.30054 12.1449 8.23012 12.8599 8.36733 13.5497C8.50454 14.2395 8.84321 14.8731 9.34053 15.3705C9.83784 15.8678 10.4715 16.2064 11.1613 16.3437C11.8511 16.4809 12.566 16.4104 13.2158 16.1413C13.8656 15.8722 14.421 15.4164 14.8117 14.8316C15.2024 14.2468 15.411 13.5593 15.411 12.856C15.411 12.389 15.319 11.9266 15.1403 11.4952C14.9616 11.0637 14.6997 10.6717 14.3695 10.3415C14.0393 10.0113 13.6473 9.74938 13.2158 9.57067C12.7844 9.39196 12.322 9.29999 11.855 9.29999ZM11.855 6.92899C13.0272 6.92899 14.1732 7.2766 15.1479 7.92787C16.1226 8.57913 16.8822 9.5048 17.3308 10.5878C17.7794 11.6708 17.8968 12.8626 17.6681 14.0123C17.4394 15.162 16.8749 16.2181 16.046 17.047C15.2171 17.8759 14.161 18.4404 13.0113 18.6691C11.8616 18.8978 10.6699 18.7804 9.58683 18.3318C8.50382 17.8832 7.57815 17.1235 6.92688 16.1489C6.27561 15.1742 5.928 14.0282 5.928 12.856C5.92787 12.0775 6.08107 11.3066 6.37886 10.5874C6.67665 9.86809 7.11319 9.21452 7.66356 8.66396C8.21394 8.1134 8.86736 7.67664 9.58653 7.37861C10.3057 7.08058 11.0765 6.92712 11.855 6.92699V6.92899ZM19.561 6.62899C19.561 6.9221 19.4741 7.20863 19.3112 7.45234C19.1484 7.69605 18.9169 7.88601 18.6461 7.99818C18.3753 8.11034 18.0774 8.13969 17.7899 8.08251C17.5024 8.02533 17.2383 7.88418 17.0311 7.67692C16.8238 7.46966 16.6827 7.20559 16.6255 6.91811C16.5683 6.63063 16.5976 6.33265 16.7098 6.06185C16.822 5.79105 17.0119 5.55959 17.2556 5.39675C17.4994 5.2339 17.7859 5.14699 18.079 5.14699C18.2737 5.14712 18.4665 5.18561 18.6463 5.26027C18.8261 5.33494 18.9895 5.4443 19.127 5.58211C19.2645 5.71993 19.3736 5.8835 19.4479 6.06347C19.5222 6.24344 19.5603 6.43628 19.56 6.63099L19.561 6.62899ZM11.855 3.36899C8.922 3.36899 8.443 3.37699 7.079 3.43799C6.35151 3.448 5.63098 3.58122 4.948 3.83199C4.46403 4.00968 4.02647 4.29444 3.668 4.66499C3.29671 5.02323 3.01125 5.46081 2.833 5.94499C2.58219 6.62861 2.4493 7.34986 2.44 8.07799C2.378 9.38699 2.371 9.84399 2.371 12.854C2.371 15.787 2.379 16.266 2.44 17.63C2.44999 18.357 2.58251 19.0771 2.832 19.76C3.01705 20.2404 3.30068 20.6767 3.66461 21.0408C4.02854 21.4049 4.4647 21.6887 4.945 21.874C5.62894 22.1252 6.35047 22.2587 7.079 22.269C8.388 22.331 8.845 22.338 11.855 22.338C14.788 22.338 15.267 22.33 16.631 22.269C17.358 22.2588 18.078 22.1263 18.761 21.877C19.2442 21.6983 19.6815 21.4141 20.041 21.045C20.4121 20.6866 20.6975 20.2491 20.876 19.765C21.1263 19.0809 21.2595 18.3594 21.27 17.631C21.332 16.322 21.339 15.865 21.339 12.855C21.339 9.92199 21.331 9.44299 21.27 8.07899C21.2597 7.35152 21.1265 6.63103 20.876 5.94799C20.6972 5.46456 20.4126 5.02722 20.043 4.66799C19.685 4.29645 19.2473 4.01096 18.763 3.83299C18.0799 3.58285 17.3594 3.4503 16.632 3.44099C15.322 3.37799 14.865 3.37099 11.855 3.37099V3.36899ZM11.855 0.997986C15.076 0.997986 15.478 1.00999 16.742 1.06899C17.7255 1.08925 18.6985 1.27553 19.62 1.61999C20.4115 1.91661 21.1284 2.38324 21.72 2.98699C22.3225 3.57963 22.7889 4.29618 23.087 5.08699C23.431 6.00857 23.6173 6.98152 23.638 7.96499C23.694 9.22899 23.709 9.63099 23.709 12.852C23.709 16.073 23.697 16.475 23.638 17.739C23.6171 18.7224 23.4309 19.6954 23.087 20.617C22.7831 21.405 22.3176 22.1206 21.7205 22.7179C21.1234 23.3151 20.4079 23.7808 19.62 24.085C18.6984 24.429 17.7255 24.6153 16.742 24.636C15.478 24.692 15.076 24.707 11.855 24.707C8.634 24.707 8.232 24.695 6.968 24.636C5.98454 24.6151 5.01161 24.4289 4.09 24.085C3.30222 23.7813 2.58671 23.3161 1.98945 22.7194C1.39218 22.1226 0.926387 21.4075 0.622 20.62C0.277437 19.6986 0.0911449 18.7255 0.0710001 17.742C0.0150001 16.477 0 16.076 0 12.855C0 9.63399 0.0120001 9.23199 0.0710001 7.96799C0.0911449 6.98445 0.277437 6.01141 0.622 5.08999C0.918599 4.29843 1.38523 3.58159 1.989 2.98999C2.58103 2.38675 3.29776 1.92019 4.089 1.62299C5.01042 1.27842 5.98347 1.09213 6.967 1.07199C8.232 1.01499 8.634 0.999986 11.855 0.999986V0.997986Z" fill="#09F77D"/>
</svg>
