<svg width="19" height="24" viewBox="0 0 19 24" fill="none" xmlns="http://www.w3.org/2000/svg">
<path d="M9.48397 1.18723e-08C6.98501 -0.000124939 4.58699 0.986047 2.8111 2.74418C1.03521 4.5023 0.0249896 6.8903 0 9.38913C0 15.8856 8.35775 23.1172 8.7134 23.4254C8.92813 23.6091 9.2014 23.71 9.48397 23.71C9.76654 23.71 10.0398 23.6091 10.2545 23.4254C10.6695 23.1172 18.9679 15.8856 18.9679 9.38913C18.9429 6.8903 17.9327 4.5023 16.1568 2.74418C14.381 0.986047 11.9829 -0.000124939 9.48397 1.18723e-08ZM9.48397 20.924C7.50419 19.0391 2.37099 13.811 2.37099 9.38913C2.37099 7.50265 3.12039 5.69344 4.45434 4.35949C5.78828 3.02555 7.59749 2.27615 9.48397 2.27615C11.3704 2.27615 13.1797 3.02555 14.5136 4.35949C15.8475 5.69344 16.5969 7.50265 16.5969 9.38913C16.5969 13.7755 11.4637 19.0391 9.48397 20.924Z" fill="#09F77D"/>
<path d="M9.48322 4.74197C8.66258 4.74197 7.86037 4.98532 7.17803 5.44125C6.49569 5.89717 5.96387 6.54519 5.64983 7.30337C5.33578 8.06154 5.25361 8.89581 5.41371 9.70069C5.57381 10.5056 5.96899 11.2449 6.54927 11.8252C7.12955 12.4054 7.86887 12.8006 8.67375 12.9607C9.47862 13.1208 10.3129 13.0387 11.0711 12.7246C11.8292 12.4106 12.4773 11.8787 12.9332 11.1964C13.3891 10.5141 13.6325 9.71185 13.6325 8.89121C13.6325 7.79076 13.1953 6.73539 12.4172 5.95726C11.639 5.17912 10.5837 4.74197 9.48322 4.74197V4.74197ZM9.48322 10.6695C9.13152 10.6695 8.78771 10.5652 8.49528 10.3698C8.20285 10.1744 7.97493 9.89665 7.84034 9.57171C7.70575 9.24678 7.67053 8.88924 7.73915 8.54429C7.80776 8.19935 7.97712 7.88249 8.22581 7.6338C8.47451 7.38511 8.79136 7.21575 9.1363 7.14713C9.48125 7.07852 9.8388 7.11374 10.1637 7.24833C10.4887 7.38292 10.7664 7.61084 10.9618 7.90327C11.1572 8.1957 11.2615 8.53951 11.2615 8.89121C11.2615 9.36283 11.0741 9.81513 10.7406 10.1486C10.4071 10.4821 9.95484 10.6695 9.48322 10.6695Z" fill="#09F77D"/>
</svg>
