<svg width="244" height="430" viewBox="0 0 244 430" fill="none" xmlns="http://www.w3.org/2000/svg">
<path d="M145.145 199.307V71.955C145.074 52.892 137.451 34.634 123.947 21.1794C110.442 7.7249 92.1556 0.170441 73.0925 0.170441C54.0294 0.170441 35.7431 7.7249 22.2383 21.1794C8.73356 34.634 1.11101 52.892 1.03999 71.955V125.947L0 194.802V194.972C0.0739381 226.09 12.4681 255.913 34.4718 277.917C56.4754 299.922 86.2977 312.317 117.416 312.392H126.085C157.204 312.318 187.026 299.923 209.031 277.918C231.035 255.914 243.429 226.091 243.503 194.972V77.937C243.503 72.1545 241.206 66.6088 237.117 62.52C233.028 58.4311 227.483 56.134 221.7 56.134C215.917 56.134 210.372 58.4311 206.283 62.52C202.194 66.6088 199.897 72.1545 199.897 77.937V194.97C199.824 214.524 192.024 233.256 178.197 247.083C164.371 260.91 145.639 268.711 126.085 268.784H117.416C97.8624 268.71 79.1308 260.909 65.3044 247.082C51.478 233.255 43.6778 214.524 43.604 194.97L43.454 195.108L43.602 195.3L44.645 126.292V71.955C44.6895 64.4398 47.7062 57.2475 53.0361 51.9491C58.3661 46.6507 65.5761 43.6767 73.0915 43.6767C80.6069 43.6767 87.8169 46.6507 93.1469 51.9491C98.4768 57.2475 101.493 64.4398 101.538 71.955V199.307C101.538 205.09 103.835 210.635 107.924 214.724C112.013 218.813 117.558 221.11 123.341 221.11C129.124 221.11 134.669 218.813 138.758 214.724C142.847 210.635 145.144 205.09 145.144 199.307H145.145Z" fill="#09F77D"/>
<path d="M220.682 44.968C233.1 44.968 243.166 34.9016 243.166 22.484C243.166 10.0664 233.1 0 220.682 0C208.264 0 198.198 10.0664 198.198 22.484C198.198 34.9016 208.264 44.968 220.682 44.968Z" fill="#09F77D"/>
<path d="M25.9713 404.902C25.4046 404.902 25.1213 404.619 25.1213 404.052V346.252C25.1213 345.685 25.4046 345.402 25.9713 345.402H38.4663C42.6596 345.402 45.9746 346.819 48.4113 349.652C50.8479 352.429 52.0663 356.225 52.0663 361.042V389.262C52.0663 394.079 50.8479 397.904 48.4113 400.737C45.9746 403.514 42.6596 404.902 38.4663 404.902H25.9713ZM29.6262 400.567C29.6262 400.794 29.7396 400.907 29.9663 400.907H38.4663C41.2429 400.85 43.4246 399.802 45.0113 397.762C46.6546 395.665 47.4763 392.804 47.4763 389.177V361.212C47.4763 357.529 46.6546 354.639 45.0113 352.542C43.4246 350.445 41.2146 349.397 38.3813 349.397H29.9663C29.7396 349.397 29.6262 349.51 29.6262 349.737V400.567ZM89.6429 348.547C89.6429 349.114 89.3596 349.397 88.7929 349.397H68.6479C68.4212 349.397 68.3079 349.51 68.3079 349.737V372.772C68.3079 372.999 68.4212 373.112 68.6479 373.112H81.5679C82.1346 373.112 82.4179 373.395 82.4179 373.962V376.257C82.4179 376.824 82.1346 377.107 81.5679 377.107H68.6479C68.4212 377.107 68.3079 377.22 68.3079 377.447V400.567C68.3079 400.794 68.4212 400.907 68.6479 400.907H88.7929C89.3596 400.907 89.6429 401.19 89.6429 401.757V404.052C89.6429 404.619 89.3596 404.902 88.7929 404.902H64.6529C64.0862 404.902 63.8029 404.619 63.8029 404.052V346.252C63.8029 345.685 64.0862 345.402 64.6529 345.402H88.7929C89.3596 345.402 89.6429 345.685 89.6429 346.252V348.547ZM110.702 405.582C106.679 405.582 103.421 404.222 100.927 401.502C98.434 398.725 97.1873 395.127 97.1873 390.707V388.922C97.1873 388.355 97.4706 388.072 98.0373 388.072H100.757C101.324 388.072 101.607 388.355 101.607 388.922V390.537C101.607 393.88 102.429 396.572 104.072 398.612C105.772 400.652 107.954 401.672 110.617 401.672C113.281 401.672 115.491 400.68 117.247 398.697C119.004 396.714 119.882 394.135 119.882 390.962C119.882 388.865 119.457 387.052 118.607 385.522C117.814 383.992 116.766 382.689 115.462 381.612C114.216 380.479 112.147 378.807 109.257 376.597C106.311 374.387 104.044 372.574 102.457 371.157C100.927 369.684 99.6523 367.955 98.6323 365.972C97.6123 363.932 97.1023 361.524 97.1023 358.747C97.1023 354.384 98.3206 350.955 100.757 348.462C103.194 345.969 106.339 344.722 110.192 344.722C114.329 344.722 117.644 346.11 120.137 348.887C122.631 351.664 123.877 355.319 123.877 359.852V361.977C123.877 362.544 123.594 362.827 123.027 362.827H120.222C119.656 362.827 119.372 362.544 119.372 361.977V359.852C119.372 356.509 118.522 353.817 116.822 351.777C115.179 349.68 112.969 348.632 110.192 348.632C107.699 348.632 105.631 349.539 103.987 351.352C102.344 353.109 101.522 355.602 101.522 358.832C101.522 360.759 101.862 362.43 102.542 363.847C103.279 365.264 104.299 366.595 105.602 367.842C106.962 369.089 109.002 370.732 111.722 372.772C115.066 375.265 117.559 377.277 119.202 378.807C120.846 380.337 122.092 382.009 122.942 383.822C123.849 385.635 124.302 387.817 124.302 390.367C124.302 395.014 123.027 398.725 120.477 401.502C117.984 404.222 114.726 405.582 110.702 405.582ZM135.708 404.902C135.141 404.902 134.858 404.619 134.858 404.052V346.252C134.858 345.685 135.141 345.402 135.708 345.402H138.513C139.079 345.402 139.363 345.685 139.363 346.252V404.052C139.363 404.619 139.079 404.902 138.513 404.902H135.708ZM165.027 405.582C160.891 405.582 157.547 404.335 154.997 401.842C152.504 399.292 151.257 395.949 151.257 391.812V358.492C151.257 354.355 152.504 351.04 154.997 348.547C157.547 345.997 160.891 344.722 165.027 344.722C169.164 344.722 172.507 345.997 175.057 348.547C177.607 351.04 178.882 354.355 178.882 358.492V362.232C178.882 362.799 178.599 363.082 178.032 363.082H175.227C174.661 363.082 174.377 362.799 174.377 362.232V358.407C174.377 355.46 173.527 353.109 171.827 351.352C170.127 349.595 167.861 348.717 165.027 348.717C162.194 348.717 159.927 349.595 158.227 351.352C156.527 353.109 155.677 355.46 155.677 358.407V391.897C155.677 394.844 156.527 397.195 158.227 398.952C159.927 400.709 162.194 401.587 165.027 401.587C167.861 401.587 170.127 400.709 171.827 398.952C173.527 397.195 174.377 394.844 174.377 391.897V379.912C174.377 379.685 174.264 379.572 174.037 379.572H166.047C165.481 379.572 165.197 379.289 165.197 378.722V376.427C165.197 375.86 165.481 375.577 166.047 375.577H178.032C178.599 375.577 178.882 375.86 178.882 376.427V391.812C178.882 395.949 177.607 399.292 175.057 401.842C172.507 404.335 169.164 405.582 165.027 405.582ZM214.435 346.252C214.435 345.685 214.718 345.402 215.285 345.402H218.005C218.572 345.402 218.855 345.685 218.855 346.252V404.052C218.855 404.619 218.572 404.902 218.005 404.902H214.69C214.237 404.902 213.925 404.675 213.755 404.222L195.65 356.622C195.593 356.452 195.508 356.395 195.395 356.452C195.282 356.452 195.225 356.537 195.225 356.707L195.31 404.052C195.31 404.619 195.027 404.902 194.46 404.902H191.655C191.088 404.902 190.805 404.619 190.805 404.052V346.252C190.805 345.685 191.088 345.402 191.655 345.402H194.885C195.338 345.402 195.65 345.629 195.82 346.082L214.01 393.427C214.067 393.597 214.152 393.682 214.265 393.682C214.378 393.625 214.435 393.512 214.435 393.342V346.252Z" fill="#09F77D"/>
</svg>
