<svg width="49" height="88" viewBox="0 0 49 88" fill="none" xmlns="http://www.w3.org/2000/svg">
<g clip-path="url(#clip0)">
<path d="M29.372 38.979V14.085C29.3407 10.3701 27.8431 6.81803 25.2051 4.20221C22.5671 1.58639 19.0026 0.118683 15.2876 0.118683C11.5725 0.118683 8.00796 1.58639 5.37 4.20221C2.73205 6.81803 1.23435 10.3701 1.20305 14.085V24.639L1.00305 38.098V38.131C1.01731 44.214 3.44001 50.0437 7.74123 54.3451C12.0424 58.6465 17.8721 61.0695 23.955 61.084H25.65C31.7331 61.0695 37.5629 58.6466 41.8642 54.3452C46.1656 50.0438 48.5885 44.2141 48.6031 38.131V15.254C48.6031 14.1236 48.154 13.0396 47.3547 12.2403C46.5555 11.441 45.4714 10.992 44.3411 10.992C43.2107 10.992 42.1266 11.441 41.3274 12.2403C40.5281 13.0396 40.079 14.1236 40.079 15.254V38.131C40.0648 41.954 38.5396 45.6162 35.8361 48.3192C33.1326 51.0222 29.47 52.5466 25.647 52.56H23.952C20.1299 52.5452 16.4685 51.0203 13.7659 48.3175C11.0632 45.6147 9.53853 41.9532 9.52405 38.131L9.49505 38.158L9.52405 38.195L9.72405 24.705V14.085C9.74366 12.6232 10.3381 11.2279 11.3788 10.2011C12.4194 9.17428 13.8226 8.59857 15.2846 8.59857C16.7465 8.59857 18.1497 9.17428 19.1903 10.2011C20.231 11.2279 20.8254 12.6232 20.845 14.085V38.979C20.845 40.1094 21.2941 41.1934 22.0934 41.9927C22.8926 42.792 23.9767 43.241 25.107 43.241C26.2374 43.241 27.3215 42.792 28.1207 41.9927C28.92 41.1934 29.3691 40.1094 29.3691 38.979H29.372Z" fill="#09F77D"/>
<path d="M44.3341 8.80901C46.7614 8.80901 48.7291 6.8413 48.7291 4.41401C48.7291 1.98672 46.7614 0.0190125 44.3341 0.0190125C41.9068 0.0190125 39.9391 1.98672 39.9391 4.41401C39.9391 6.8413 41.9068 8.80901 44.3341 8.80901Z" fill="#09F77D"/>
</g>
<path d="M1.905 82C1.77167 82 1.705 81.9333 1.705 81.8V68.2C1.705 68.0667 1.77167 68 1.905 68H4.845C5.83167 68 6.61167 68.3333 7.185 69C7.75833 69.6533 8.045 70.5467 8.045 71.68V78.32C8.045 79.4533 7.75833 80.3533 7.185 81.02C6.61167 81.6733 5.83167 82 4.845 82H1.905ZM2.765 80.98C2.765 81.0333 2.79167 81.06 2.845 81.06H4.845C5.49833 81.0467 6.01167 80.8 6.385 80.32C6.77167 79.8267 6.965 79.1533 6.965 78.3V71.72C6.965 70.8533 6.77167 70.1733 6.385 69.68C6.01167 69.1867 5.49167 68.94 4.825 68.94H2.845C2.79167 68.94 2.765 68.9667 2.765 69.02V80.98ZM16.8866 68.74C16.8866 68.8733 16.8199 68.94 16.6866 68.94H11.9466C11.8932 68.94 11.8666 68.9667 11.8666 69.02V74.44C11.8666 74.4933 11.8932 74.52 11.9466 74.52H14.9866C15.1199 74.52 15.1866 74.5867 15.1866 74.72V75.26C15.1866 75.3933 15.1199 75.46 14.9866 75.46H11.9466C11.8932 75.46 11.8666 75.4867 11.8666 75.54V80.98C11.8666 81.0333 11.8932 81.06 11.9466 81.06H16.6866C16.8199 81.06 16.8866 81.1267 16.8866 81.26V81.8C16.8866 81.9333 16.8199 82 16.6866 82H11.0066C10.8732 82 10.8066 81.9333 10.8066 81.8V68.2C10.8066 68.0667 10.8732 68 11.0066 68H16.6866C16.8199 68 16.8866 68.0667 16.8866 68.2V68.74ZM21.8417 82.16C20.8951 82.16 20.1284 81.84 19.5417 81.2C18.9551 80.5467 18.6617 79.7 18.6617 78.66V78.24C18.6617 78.1067 18.7284 78.04 18.8617 78.04H19.5017C19.6351 78.04 19.7017 78.1067 19.7017 78.24V78.62C19.7017 79.4067 19.8951 80.04 20.2817 80.52C20.6817 81 21.1951 81.24 21.8217 81.24C22.4484 81.24 22.9684 81.0067 23.3817 80.54C23.7951 80.0733 24.0017 79.4667 24.0017 78.72C24.0017 78.2267 23.9017 77.8 23.7017 77.44C23.5151 77.08 23.2684 76.7733 22.9617 76.52C22.6684 76.2533 22.1817 75.86 21.5017 75.34C20.8084 74.82 20.2751 74.3933 19.9017 74.06C19.5417 73.7133 19.2417 73.3067 19.0017 72.84C18.7617 72.36 18.6417 71.7933 18.6417 71.14C18.6417 70.1133 18.9284 69.3067 19.5017 68.72C20.0751 68.1333 20.8151 67.84 21.7217 67.84C22.6951 67.84 23.4751 68.1667 24.0617 68.82C24.6484 69.4733 24.9417 70.3333 24.9417 71.4V71.9C24.9417 72.0333 24.8751 72.1 24.7417 72.1H24.0817C23.9484 72.1 23.8817 72.0333 23.8817 71.9V71.4C23.8817 70.6133 23.6817 69.98 23.2817 69.5C22.8951 69.0067 22.3751 68.76 21.7217 68.76C21.1351 68.76 20.6484 68.9733 20.2617 69.4C19.8751 69.8133 19.6817 70.4 19.6817 71.16C19.6817 71.6133 19.7617 72.0067 19.9217 72.34C20.0951 72.6733 20.3351 72.9867 20.6417 73.28C20.9617 73.5733 21.4417 73.96 22.0817 74.44C22.8684 75.0267 23.4551 75.5 23.8417 75.86C24.2284 76.22 24.5217 76.6133 24.7217 77.04C24.9351 77.4667 25.0417 77.98 25.0417 78.58C25.0417 79.6733 24.7417 80.5467 24.1417 81.2C23.5551 81.84 22.7884 82.16 21.8417 82.16ZM27.7253 82C27.592 82 27.5253 81.9333 27.5253 81.8V68.2C27.5253 68.0667 27.592 68 27.7253 68H28.3853C28.5186 68 28.5853 68.0667 28.5853 68.2V81.8C28.5853 81.9333 28.5186 82 28.3853 82H27.7253ZM34.6241 82.16C33.6507 82.16 32.8641 81.8667 32.2641 81.28C31.6774 80.68 31.3841 79.8933 31.3841 78.92V71.08C31.3841 70.1067 31.6774 69.3267 32.2641 68.74C32.8641 68.14 33.6507 67.84 34.6241 67.84C35.5974 67.84 36.3841 68.14 36.9841 68.74C37.5841 69.3267 37.8841 70.1067 37.8841 71.08V71.96C37.8841 72.0933 37.8174 72.16 37.6841 72.16H37.0241C36.8907 72.16 36.8241 72.0933 36.8241 71.96V71.06C36.8241 70.3667 36.6241 69.8133 36.2241 69.4C35.8241 68.9867 35.2907 68.78 34.6241 68.78C33.9574 68.78 33.4241 68.9867 33.0241 69.4C32.6241 69.8133 32.4241 70.3667 32.4241 71.06V78.94C32.4241 79.6333 32.6241 80.1867 33.0241 80.6C33.4241 81.0133 33.9574 81.22 34.6241 81.22C35.2907 81.22 35.8241 81.0133 36.2241 80.6C36.6241 80.1867 36.8241 79.6333 36.8241 78.94V76.12C36.8241 76.0667 36.7974 76.04 36.7441 76.04H34.8641C34.7307 76.04 34.6641 75.9733 34.6641 75.84V75.3C34.6641 75.1667 34.7307 75.1 34.8641 75.1H37.6841C37.8174 75.1 37.8841 75.1667 37.8841 75.3V78.92C37.8841 79.8933 37.5841 80.68 36.9841 81.28C36.3841 81.8667 35.5974 82.16 34.6241 82.16ZM46.2494 68.2C46.2494 68.0667 46.316 68 46.4494 68H47.0894C47.2227 68 47.2894 68.0667 47.2894 68.2V81.8C47.2894 81.9333 47.2227 82 47.0894 82H46.3094C46.2027 82 46.1294 81.9467 46.0894 81.84L41.8294 70.64C41.816 70.6 41.796 70.5867 41.7694 70.6C41.7427 70.6 41.7294 70.62 41.7294 70.66L41.7494 81.8C41.7494 81.9333 41.6827 82 41.5494 82H40.8894C40.756 82 40.6894 81.9333 40.6894 81.8V68.2C40.6894 68.0667 40.756 68 40.8894 68H41.6494C41.756 68 41.8294 68.0533 41.8694 68.16L46.1494 79.3C46.1627 79.34 46.1827 79.36 46.2094 79.36C46.236 79.3467 46.2494 79.32 46.2494 79.28V68.2Z" fill="#09F77D"/>
<defs>
<clipPath id="clip0">
<rect width="47.729" height="61.084" fill="white" transform="translate(1)"/>
</clipPath>
</defs>
</svg>
