<svg width="19" height="24" viewBox="0 0 19 24" fill="none" xmlns="http://www.w3.org/2000/svg">
<path d="M15.4115 0H3.5565C2.61326 0 1.70865 0.374702 1.04167 1.04167C0.374702 1.70865 0 2.61326 0 3.5565V20.1535C0 21.0967 0.374702 22.0014 1.04167 22.6683C1.70865 23.3353 2.61326 23.71 3.5565 23.71H15.4115C16.3547 23.71 17.2594 23.3353 17.9263 22.6683C18.5933 22.0014 18.968 21.0967 18.968 20.1535V3.5565C18.968 2.61326 18.5933 1.70865 17.9263 1.04167C17.2594 0.374702 16.3547 0 15.4115 0ZM16.597 20.1535C16.597 20.4679 16.4721 20.7694 16.2498 20.9918C16.0275 21.2141 15.7259 21.339 15.4115 21.339H3.5565C3.24209 21.339 2.94055 21.2141 2.71823 20.9918C2.4959 20.7694 2.371 20.4679 2.371 20.1535V3.5565C2.371 3.24209 2.4959 2.94055 2.71823 2.71822C2.94055 2.4959 3.24209 2.371 3.5565 2.371H15.4115C15.7259 2.371 16.0275 2.4959 16.2498 2.71822C16.4721 2.94055 16.597 3.24209 16.597 3.5565V20.1535Z" fill="#09F77D"/>
<path d="M9.48333 18.968C10.4654 18.968 11.2616 18.1718 11.2616 17.1897C11.2616 16.2076 10.4654 15.4115 9.48333 15.4115C8.50123 15.4115 7.70508 16.2076 7.70508 17.1897C7.70508 18.1718 8.50123 18.968 9.48333 18.968Z" fill="#09F77D"/>
<path d="M12.447 4.742H6.51948C6.20507 4.742 5.90353 4.86691 5.68121 5.08923C5.45889 5.31155 5.33398 5.61309 5.33398 5.9275C5.33398 6.24192 5.45889 6.54345 5.68121 6.76578C5.90353 6.9881 6.20507 7.113 6.51948 7.113H12.447C12.7614 7.113 13.0629 6.9881 13.2853 6.76578C13.5076 6.54345 13.6325 6.24192 13.6325 5.9275C13.6325 5.61309 13.5076 5.31155 13.2853 5.08923C13.0629 4.86691 12.7614 4.742 12.447 4.742Z" fill="#09F77D"/>
</svg>
