<svg width="45" height="40" viewBox="0 0 45 40" fill="none" xmlns="http://www.w3.org/2000/svg">
<path d="M36.9447 15.3232C34.1327 15.3232 33.1726 16.753 33.1726 17.9291C33.1726 19.2149 33.8115 20.1063 37.587 22.071C43.1733 24.7866 44.9193 27.3925 44.9193 31.2155C44.9193 36.9313 40.5766 40 34.7033 40C31.6077 40 28.9359 39.3554 27.4086 38.464C27.1592 38.3577 27.125 38.1794 27.125 37.8913V32.6453C27.125 32.2887 27.3027 32.1825 27.5521 32.3607C29.7935 33.8248 32.356 34.4694 34.7067 34.4694C37.5187 34.4694 38.694 33.2899 38.694 31.6819C38.694 30.3961 37.874 29.2543 34.2796 27.3959C29.2263 24.9683 27.125 22.503 27.125 18.3954C27.125 13.7871 30.7194 9.96747 36.9481 9.96747C40.0094 9.96747 42.1449 10.4304 43.3202 10.9687C43.6038 11.147 43.6756 11.4316 43.6756 11.6819V16.5747C43.6756 16.8593 43.4979 17.0376 43.1426 16.9313C41.5709 15.9301 39.2578 15.3232 36.9447 15.3232Z" fill="#31C5F0"/>
<path d="M9.96656 4.57764e-05C6.44051 4.57764e-05 3.06138 0.0720499 0.782428 0.178342C0.49884 0.178342 0 0.356638 0 0.606938V38.968C0 39.2903 0.143502 39.3966 0.427089 39.3966H5.87333C6.1945 39.3966 6.30042 39.2526 6.30042 38.968V25.2529C7.26052 25.2529 7.72519 25.3249 9.07821 25.3249C17.1212 25.3249 23.671 21.4333 23.671 12.3608C23.6676 5.42778 19.8238 4.57764e-05 9.96656 4.57764e-05ZM9.2183 19.6435C7.79353 19.6435 7.1546 19.6435 6.33459 19.5715V5.78781C6.97693 5.75352 8.32653 5.68151 9.7513 5.68151C14.4835 5.68151 17.2954 7.9685 17.2954 12.5048C17.2988 18.1794 13.3833 19.6435 9.2183 19.6435Z" fill="#31C5F0"/>
</svg>
