<svg width="110" height="110" viewBox="0 0 110 110" fill="none" xmlns="http://www.w3.org/2000/svg">
<ellipse cx="55" cy="55" rx="55" ry="55" transform="rotate(90 55 55)" fill="#424242"/>
<path d="M55 -6.97353e-06C67.354 -6.82621e-06 79.3483 4.15925 89.0502 11.8076C98.752 19.4559 105.596 30.1478 108.48 42.1605C111.364 54.1732 110.12 66.807 104.948 78.0263C99.7757 89.2455 90.977 98.3967 79.9695 104.005C68.9619 109.614 56.3867 111.353 44.27 108.943C32.1534 106.533 21.201 100.114 13.1777 90.7196C5.15437 81.3256 0.527423 69.5038 0.042404 57.1593C-0.442615 44.8148 3.24254 32.6664 10.5041 22.6718L55 55L55 -6.97353e-06Z" fill="#31C5F0"/>
<mask id="mask0" mask-type="alpha" maskUnits="userSpaceOnUse" x="3" y="3" width="105" height="105">
<circle cx="55.2329" cy="55.2329" r="52.2329" fill="#242424"/>
</mask>
<g mask="url(#mask0)">
<path d="M1.46289 1.46375H109.756V107.591H1.46289V1.46375Z" fill="#242424"/>
</g>
</svg>
