<svg width="25" height="54" viewBox="0 0 25 54" fill="none" xmlns="http://www.w3.org/2000/svg">
<path d="M14.128 27.036C15.7196 27.168 17.3179 26.8797 18.763 26.2C19.6795 25.7182 20.4282 24.9696 20.91 24.053C21.5901 22.6084 21.8788 21.0104 21.747 19.419L21.747 10.946C21.8787 9.35441 21.59 7.75611 20.91 6.31105C20.4283 5.39505 19.68 4.64676 18.764 4.16505C17.319 3.48489 15.7207 3.19626 14.129 3.32805H11.583C9.99138 3.1964 8.39309 3.48503 6.94802 4.16505C6.03202 4.64676 5.28373 5.39505 4.80202 6.31105C4.12186 7.75607 3.83323 9.3544 3.96502 10.946L3.96502 19.419C3.83337 21.0107 4.122 22.609 4.80202 24.054C5.28346 24.9699 6.03139 25.7182 6.94702 26.2C8.39205 26.879 9.98983 27.1673 11.581 27.036H14.128ZM14.128 30H11.582C9.50116 30.1441 7.41927 29.7345 5.54802 28.813C4.1159 28.0552 2.94484 26.8842 2.18702 25.452C1.26553 23.5808 0.855989 21.4989 1.00002 19.418L1.00002 10.945C0.855989 8.86419 1.26553 6.7823 2.18702 4.91105C2.94484 3.47893 4.1159 2.30786 5.54802 1.55005C7.41927 0.628559 9.50116 0.219015 11.582 0.363049H14.129C16.2099 0.219015 18.2918 0.628559 20.163 1.55005C21.595 2.3076 22.766 3.4783 23.524 4.91005C24.4445 6.78197 24.8537 8.864 24.71 10.945L24.71 19.419C24.8542 21.5002 24.4447 23.5825 23.523 25.454C22.7646 26.8856 21.5932 28.0559 20.161 28.813C18.2903 29.7349 16.2086 30.1445 14.128 30ZM14.337 24.073H11.373L11.373 16.664H14.337L14.337 24.073Z" fill="#09F77D"/>
<path d="M13.5 37.5001V54.5001" stroke="#09F77D" stroke-width="3"/>
</svg>
