<svg width="45" height="40" viewBox="0 0 45 40" fill="none" xmlns="http://www.w3.org/2000/svg">
<path d="M9.64587 1.31535L22.1023 0L34.5587 1.31535L44.2046 14.2664L22.1023 40L0 14.2664L9.64587 1.31535Z" fill="#FDB300"/>
<path d="M8.94885 14.2643L22.1023 39.9979L0 14.2643H8.94885Z" fill="#EA6C00"/>
<path d="M35.255 14.2643L22.1016 39.9979L44.2039 14.2643H35.255Z" fill="#EA6C00"/>
<path d="M8.94922 14.2643H35.2561L22.1027 39.9979L8.94922 14.2643Z" fill="#FDAD00"/>
<path d="M22.1027 0L9.64624 1.31535L8.94922 14.2664L22.1027 0Z" fill="#FDD231"/>
<path d="M22.1016 0L34.558 1.31535L35.255 14.2664L22.1016 0Z" fill="#FDD231"/>
<path d="M44.2045 14.2664L34.5586 1.31534L35.2556 14.2664H44.2045Z" fill="#FDAD00"/>
<path d="M0 14.2664L9.64587 1.31534L8.94885 14.2664H0Z" fill="#FDAD00"/>
<path d="M22.1027 0L8.94922 14.2664H35.2561L22.1027 0Z" fill="#FEEEB7"/>
</svg>
