<svg width="110" height="110" viewBox="0 0 110 110" fill="none" xmlns="http://www.w3.org/2000/svg">
<ellipse cx="55" cy="55" rx="55" ry="55" transform="rotate(90 55 55)" fill="#424242"/>
<path d="M55 5.40616e-05C68.0957 5.42178e-05 80.7616 4.67277 90.7196 13.1777C100.678 21.6827 107.274 33.4617 109.323 46.3962C111.371 59.3306 108.738 72.5716 101.895 83.7375C95.0527 94.9034 84.4507 103.261 71.9959 107.308C59.5412 111.355 46.0512 110.825 33.9524 105.813C21.8536 100.802 11.94 91.6379 5.99464 79.9695C0.049332 68.3012 -1.53747 54.8944 1.51965 42.1606C4.57678 29.4267 12.0772 18.2016 22.6718 10.5041L55 55.0001L55 5.40616e-05Z" fill="#F8B209"/>
<mask id="mask0" mask-type="alpha" maskUnits="userSpaceOnUse" x="3" y="3" width="105" height="105">
<circle cx="55.2329" cy="55.233" r="52.2329" fill="#242424"/>
</mask>
<g mask="url(#mask0)">
<path d="M1.46289 1.46381H109.756V107.591H1.46289V1.46381Z" fill="#242424"/>
</g>
</svg>
