<svg width="38" height="40" viewBox="0 0 38 40" fill="none" xmlns="http://www.w3.org/2000/svg">
<g clip-path="url(#clip0)">
<path d="M37.0713 23.0177C37.0713 25.1685 36.695 27.0626 35.9108 28.6998C35.1267 30.3371 34.0289 31.7175 32.6175 32.809C31.2061 33.9005 29.4497 34.7673 27.411 35.313C25.3723 35.8909 23.0513 36.1477 20.5107 36.1477C18.0329 36.1477 15.5865 36.1477 13.2341 36.1477C10.8504 36.1477 8.56075 36.1477 6.30248 36.1477C5.33017 36.1477 4.67151 36.2761 4.26377 36.5008C3.85603 36.7255 3.66784 37.175 3.66784 37.7849C3.66784 38.1701 3.69921 38.5233 3.7933 38.8764C3.88739 39.2295 4.01285 39.5827 4.20104 39.9679H0.656822C0.468633 39.5506 0.311809 39.1011 0.18635 38.6196C0.0608912 38.138 -0.0332031 37.6244 -0.0332031 37.1429C-0.0332031 35.5698 0.468633 34.4462 1.47231 33.7079C2.47598 32.9695 3.91876 32.6164 5.83201 32.6164C6.77295 32.6164 7.83936 32.6164 9.03122 32.6164C10.2231 32.6164 11.4777 32.6164 12.795 32.6164C14.1123 32.6164 15.4296 32.6164 16.8097 32.6164C18.1584 32.6164 19.4443 32.6164 20.6989 32.6164C21.2635 32.6164 21.7967 32.6164 22.3299 32.5843C22.8631 32.5522 23.3649 32.5201 23.8354 32.4559C25.2782 32.2311 26.5641 31.878 27.6933 31.3965C28.8224 30.8828 29.7947 30.2408 30.5788 29.4703C31.3629 28.6998 31.9589 27.7689 32.3666 26.7416C32.7744 25.7143 32.9939 24.5265 32.9939 23.2424C32.9939 21.9262 32.8057 20.8026 32.4607 19.9037C32.1157 19.0048 31.6139 18.2986 30.9552 17.7528C30.3279 17.2071 29.5751 16.8218 28.6969 16.565C27.8187 16.3403 26.8464 16.2119 25.8427 16.2119H22.9885V18.6838C22.9885 20.7384 22.7376 22.4398 22.2044 23.8523C21.6712 25.2327 20.8871 26.4205 19.8521 27.3515C18.8484 28.2504 17.6879 28.8925 16.3078 29.3419C14.9278 29.7913 13.3596 30.0161 11.6031 30.0161C9.78397 30.0161 8.18437 29.7592 6.80432 29.2777C5.42427 28.7961 4.26377 28.122 3.35419 27.2873C2.44461 26.4526 1.75459 25.4896 1.28412 24.366C0.813646 23.2424 0.594092 22.0546 0.594092 20.8026C0.594092 18.6517 1.12729 16.9181 2.22506 15.6019C3.29146 14.2857 4.76561 13.4189 6.58476 13.0016V0H33.9348V3.62761H22.9572V12.6485H25.6546C27.3796 12.6485 28.9479 12.8411 30.3593 13.2263C31.7707 13.6116 32.9625 14.2215 33.9662 15.0562C34.9699 15.8909 35.7226 16.9823 36.2872 18.2665C36.789 19.6148 37.0713 21.1878 37.0713 23.0177ZM19.0052 16.244H10.3172C8.46665 16.244 7.0866 16.5971 6.11429 17.2713C5.14199 17.9454 4.67151 19.1011 4.67151 20.7063C4.67151 21.5409 4.82834 22.2793 5.11062 22.9856C5.3929 23.6597 5.86338 24.2697 6.45931 24.7512C7.05524 25.2327 7.77663 25.618 8.68621 25.9069C9.56442 26.1958 10.5995 26.3242 11.76 26.3242C14.2378 26.3242 16.0569 25.7143 17.2488 24.5265C18.4407 23.3066 19.0366 21.3804 19.0366 18.748V16.244H19.0052ZM19.0052 3.62761H10.474V12.6485H19.0052V3.62761Z" fill="#F8B209"/>
</g>
<defs>
<clipPath id="clip0">
<rect width="37.0732" height="40" fill="white"/>
</clipPath>
</defs>
</svg>
