<svg width="24" height="20" viewBox="0 0 24 20" fill="none" xmlns="http://www.w3.org/2000/svg">
<path d="M16.484 2.37198C15.583 2.37183 14.7179 2.72539 14.075 3.35657C13.432 3.98776 13.0625 4.84613 13.046 5.74698L13.013 7.61398C13.0117 7.70774 12.9918 7.80031 12.9546 7.88635C12.9173 7.97239 12.8634 8.0502 12.7959 8.11528C12.7284 8.18036 12.6487 8.23143 12.5613 8.26553C12.474 8.29964 12.3807 8.3161 12.287 8.31398C12.2599 8.31373 12.2328 8.31172 12.206 8.30798L10.355 8.05698C7.75196 7.63782 5.32216 6.48588 3.35 4.73598C2.641 8.65998 4.026 11.378 7.36 13.475L9.431 14.775C9.59063 14.8753 9.70389 15.0348 9.7459 15.2186C9.7879 15.4024 9.75521 15.5953 9.655 15.755C9.60714 15.8329 9.54466 15.9008 9.471 15.955L7.584 17.334C8.61078 17.4113 9.64321 17.3592 10.657 17.179C16.25 16.062 19.969 11.854 19.969 4.91198C19.7429 4.16748 19.2805 3.51686 18.6517 3.05858C18.0229 2.60029 17.262 2.35927 16.484 2.37198ZM10.675 5.70298C10.7034 4.16305 11.3423 2.69744 12.4511 1.62852C13.56 0.559588 15.0481 -0.0251235 16.588 0.0029825C18.1038 0.0296393 19.549 0.64801 20.615 1.72598C21.7278 1.86778 22.8539 1.59551 23.779 0.960983C23.6346 2.37637 23.1401 3.73354 22.34 4.90998C22.34 13.969 16.772 18.375 11.122 19.502C7.248 20.275 1.615 19.002 0 17.32C0.823 17.256 4.166 16.897 6.1 15.483C4.465 14.405 -2.042 10.576 2.234 0.282982C3.86382 2.33671 5.95558 3.97654 8.339 5.06898C9.07539 5.41672 9.86704 5.63265 10.678 5.70698L10.675 5.70298Z" fill="#09F77D"/>
</svg>
