<svg width="54" height="40" viewBox="0 0 54 40" fill="none" xmlns="http://www.w3.org/2000/svg">
<path d="M18.3155 19.2277L28.5541 38.8977C28.7367 39.189 28.6278 39.4839 28.333 39.4839H21.9694C21.5657 39.4839 21.3832 39.3751 21.2007 39.01C18.8595 34.1838 16.4833 29.3576 14.0333 24.1663H13.9596C11.7659 29.0662 9.35098 34.2224 7.01333 39.0486C6.83081 39.34 6.64829 39.4523 6.35345 39.4523H0.326795C-0.0382441 39.4523 -0.076854 39.161 0.109175 38.9398L10.1267 19.8525L0.439115 0.547559C0.217985 0.256229 0.439115 0.0350999 0.656734 0.0350999H6.94664C7.31168 0.0350999 7.4591 0.10881 7.60301 0.438749C9.90556 5.26499 12.2467 10.2386 14.4405 15.1H14.5142C16.6342 10.2737 18.9754 5.26499 21.2428 0.473849C21.4253 0.182519 21.5342 0 21.9027 0H27.789C28.0803 0 28.1926 0.221129 28.0101 0.512459L18.3155 19.2277ZM30.3477 25.1877C30.3477 16.6689 36.0164 10.014 45.009 10.014C45.7777 10.014 46.1778 10.014 46.9114 10.0877V0.400139C46.9114 0.179009 47.0939 0.0350999 47.2764 0.0350999H53.0539C53.3452 0.0350999 53.4189 0.14391 53.4189 0.326429V33.8925C53.4189 34.8788 53.4189 36.1213 53.6014 37.4762C53.6014 37.6973 53.5277 37.7675 53.3101 37.8798C50.2389 39.3435 47.0202 39.9999 43.949 39.9999C36.0129 40.0314 30.3442 35.135 30.3477 25.1877ZM46.9079 15.8301C46.3954 15.6089 45.6653 15.465 44.7878 15.465C40.1792 15.465 36.9641 19.0101 36.9641 24.8999C36.9641 31.6285 40.2564 34.3347 44.3877 34.3347C45.2652 34.3347 46.2164 34.2259 46.9114 33.9311L46.9079 15.8301Z" fill="#FF26BE"/>
</svg>
